<?xml version="1.0" encoding="utf-8"?>
<!-- Generator: Adobe Illustrator 16.0.4, SVG Export Plug-In . SVG Version: 6.00 Build 0)  -->
<!DOCTYPE svg PUBLIC "-//W3C//DTD SVG 1.1//EN" "http://www.w3.org/Graphics/SVG/1.1/DTD/svg11.dtd">
<svg version="1.1" id="レイヤー_1" xmlns="http://www.w3.org/2000/svg" xmlns:xlink="http://www.w3.org/1999/xlink" x="0px"
	 y="0px" width="247px" height="247px" viewBox="0 0 247 247" enable-background="new 0 0 247 247" xml:space="preserve">
<g>
	<path fill="#FFFFFF" d="M194.436,123.5c-0.002-34.301-24.348-62.921-56.703-69.505l-8.615,5.739
		c-1.854-0.159-3.723-0.261-5.618-0.261c-35.302,0-64.025,28.721-64.025,64.025h-6.909c0,34.3,24.347,62.914,56.703,69.505
		l8.614-5.738c1.854,0.166,3.724,0.26,5.617,0.26c35.305,0,64.028-28.721,64.028-64.025l0,0H194.436L194.436,123.5z M123.5,183.521
		c-33.149,0-60.022-26.869-60.022-60.021c0-33.151,26.873-60.021,60.022-60.021c4.008,0,7.92,0.4,11.711,1.149
		c0.127,0.025,0.258,0.045,0.385,0.07c0.279,0.057,0.555,0.127,0.83,0.19c0.736,0.158,1.471,0.324,2.197,0.515
		c13.369,3.47,24.932,11.434,32.975,22.182l0,0c1.635,2.187,3.117,4.493,4.445,6.895c0.076,0.135,0.158,0.268,0.232,0.407
		c0.91,1.678,1.742,3.401,2.492,5.175c0.014,0.024,0.023,0.049,0.035,0.076c0.238,0.559,0.451,1.13,0.67,1.696
		c0.133,0.343,0.279,0.68,0.406,1.029c0.273,0.751,0.527,1.519,0.771,2.288c0.055,0.166,0.119,0.33,0.168,0.496
		c0.152,0.488,0.283,0.984,0.422,1.48c0.129,0.457,0.271,0.908,0.391,1.373c0.047,0.179,0.078,0.361,0.123,0.539
		c0.193,0.783,0.385,1.569,0.547,2.365c0.062,0.291,0.102,0.592,0.158,0.889c0.131,0.688,0.264,1.367,0.369,2.066
		c0.068,0.451,0.113,0.902,0.172,1.359c0.072,0.547,0.156,1.087,0.209,1.64c0.07,0.699,0.115,1.405,0.16,2.104
		c0.021,0.316,0.057,0.629,0.072,0.945c0.031,0.611,0.035,1.233,0.047,1.856c0.01,0.413,0.031,0.819,0.031,1.233
		C183.521,156.652,156.646,183.521,123.5,183.521z"/>
	<path fill="#FFFFFF" d="M123.5,8.229C59.836,8.229,8.229,59.836,8.229,123.5c0,25.353,8.189,48.785,22.057,67.814
		c0.029,0.039,0.057,0.076,0.087,0.113c0.487,0.674,0.985,1.336,1.489,1.994c0.149,0.197,0.301,0.396,0.453,0.594
		c0.381,0.492,0.769,0.982,1.16,1.475c0.255,0.316,0.511,0.635,0.771,0.953c0.292,0.354,0.588,0.711,0.884,1.061
		c0.344,0.412,0.689,0.826,1.041,1.232c0.215,0.248,0.432,0.498,0.648,0.738c0.426,0.486,0.853,0.973,1.289,1.455
		c0.133,0.145,0.27,0.293,0.403,0.438c1.968,2.148,4.028,4.232,6.176,6.24c0.499,0.465,0.998,0.936,1.505,1.393
		c0.113,0.104,0.228,0.203,0.343,0.307c20.408,18.316,47.382,29.465,76.964,29.465c63.665,0,115.272-51.607,115.272-115.271
		C238.771,59.835,187.162,8.229,123.5,8.229z M55.523,210.463l20.531-1.754c-26.843-14.941-43.877-40.693-48.693-68.799
		l-11.108-11.529l0,0c0.917,19.475,7.109,38.457,17.943,54.754l7.598,2.053c5.297,7.043,11.551,13.461,18.716,19.049l-12.279-0.025
		c-0.934-0.877-1.862-1.76-2.772-2.67c-5.067-5.062-9.576-10.543-13.507-16.354c-0.335-0.496-0.672-0.998-0.999-1.506
		c-0.042-0.062-0.085-0.127-0.127-0.197c-10.108-15.68-16.086-33.697-17.419-52.229c-0.024-0.338-0.043-0.674-0.063-1.018
		c-0.027-0.445-0.056-0.885-0.078-1.328c-0.086-1.801-0.13-3.598-0.13-5.408c0-29.479,11.48-57.194,32.325-78.04
		c10.67-10.673,23.148-18.885,36.738-24.364l-8.772,18.704c26.365-15.773,57.178-17.649,83.93-7.767l15.549-3.87l0,0
		c-17.32-8.93-36.883-13.062-56.401-11.821l-5.576,5.549c-8.742,1.074-17.435,3.272-25.852,6.687l3.959-6.828l0,0l1.602-2.758
		l0.637-1.099l0.006-0.006c10.311-3.134,21.138-4.755,32.218-4.755c2.665,0,5.313,0.096,7.942,0.279
		c14.92,1.101,29.537,5.181,42.859,12.057l0,0c9.92,5.155,19.104,11.854,27.234,19.99c20.848,20.845,32.326,48.562,32.326,78.04
		c0,5.191-0.363,10.326-1.064,15.386l-11.779-16.906c0.48,30.724-13.303,58.345-35.234,76.572l-4.432,15.389l0,0
		c16.406-10.531,29.754-25.391,38.445-42.92l-2.021-7.607c3.443-8.104,5.887-16.732,7.139-25.729l4.746,8.264l1.398,2.434
		c-0.715,3.115-1.562,6.188-2.543,9.219c-0.098,0.305-0.197,0.615-0.303,0.92c-0.113,0.344-0.234,0.688-0.354,1.029
		c-0.211,0.604-0.42,1.207-0.639,1.812c-0.02,0.051-0.039,0.102-0.061,0.15c-8.371,22.746-24.025,42.051-44.176,54.982l0,0
		c-17.596,11.309-38.076,17.369-59.491,17.369C98.543,233.865,74.853,225.635,55.523,210.463z"/>
	<path fill="#FFFFFF" d="M135.176,139.465h-1.521l0.031,3.826h4.051C136.77,142.059,135.789,140.807,135.176,139.465z"/>
	<path fill="#FFFFFF" d="M200.238,83.257c0.062,0.126,0.131,0.247,0.193,0.375C200.369,83.504,200.303,83.383,200.238,83.257z"/>
	<path fill="#FFFFFF" d="M201.727,86.211c0.037,0.084,0.076,0.166,0.113,0.242C201.803,86.377,201.764,86.295,201.727,86.211z"/>
	<path fill="#FFFFFF" d="M198.834,80.688c0.041,0.071,0.078,0.147,0.121,0.217C198.914,80.835,198.875,80.759,198.834,80.688z"/>
	<path fill="#FFFFFF" d="M206.311,97.92c0.029,0.088,0.059,0.184,0.088,0.278C206.369,98.104,206.34,98.008,206.311,97.92z"/>
	<path fill="#FFFFFF" d="M197.172,77.906c0.059,0.089,0.113,0.185,0.172,0.272C197.287,78.09,197.229,77.995,197.172,77.906z"/>
	<path fill="#FFFFFF" d="M207.113,100.684c0.057,0.202,0.113,0.413,0.168,0.623C207.227,101.097,207.17,100.886,207.113,100.684z"/>
	<path fill="#FFFFFF" d="M205.227,94.665c0.066,0.179,0.129,0.363,0.193,0.547C205.355,95.028,205.293,94.843,205.227,94.665z"/>
	<path fill="#FFFFFF" d="M202.928,88.843c0.068,0.159,0.141,0.317,0.205,0.471C203.066,89.161,202.996,89.002,202.928,88.843z"/>
	<path fill="#FFFFFF" d="M183.705,61.223c0.02,0.018,0.035,0.03,0.051,0.049C183.74,61.253,183.725,61.241,183.705,61.223z"/>
	<path fill="#FFFFFF" d="M187.984,65.664c0.023,0.026,0.053,0.058,0.076,0.084C188.037,65.721,188.01,65.69,187.984,65.664z"/>
	<path fill="#FFFFFF" d="M195.566,75.415c0.037,0.057,0.076,0.114,0.113,0.171C195.645,75.529,195.604,75.471,195.566,75.415z"/>
	<path fill="#FFFFFF" d="M174.244,53.291c0.004,0,0.01,0,0.014,0.007C174.254,53.291,174.248,53.291,174.244,53.291z"/>
	<path fill="#FFFFFF" d="M179.119,57.09c0.01,0.007,0.021,0.02,0.031,0.025C179.139,57.11,179.127,57.097,179.119,57.09z"/>
	<path fill="#FFFFFF" d="M193.752,72.807c0.041,0.058,0.084,0.115,0.125,0.173C193.836,72.922,193.793,72.865,193.752,72.807z"/>
	<path fill="#FFFFFF" d="M191.949,70.399c0.029,0.044,0.061,0.083,0.094,0.128C192.012,70.482,191.979,70.443,191.949,70.399z"/>
	<path fill="#FFFFFF" d="M189.996,67.985c0.021,0.024,0.041,0.044,0.062,0.069C190.037,68.029,190.016,68.009,189.996,67.985z"/>
	<path fill="#FFFFFF" d="M204.227,91.963c0.031,0.083,0.066,0.179,0.1,0.261C204.293,92.142,204.258,92.046,204.227,91.963z"/>
	<path fill="#FFFFFF" d="M210.082,119.808c0.01,0.248,0.021,0.495,0.027,0.743C210.102,120.303,210.092,120.056,210.082,119.808z"/>
	<path fill="#FFFFFF" d="M209.561,113.274c0.025,0.242,0.057,0.479,0.078,0.719C209.617,113.75,209.586,113.516,209.561,113.274z"/>
	<path fill="#FFFFFF" d="M208.562,106.893c0.045,0.229,0.086,0.452,0.131,0.674C208.648,107.345,208.607,107.124,208.562,106.893z"
		/>
	<path fill="#FFFFFF" d="M209.178,110.401c0.01,0.062,0.021,0.135,0.027,0.198C209.197,110.536,209.186,110.463,209.178,110.401z"/>
	<path fill="#FFFFFF" d="M209.918,116.877c0,0.045,0.002,0.082,0.008,0.121C209.92,116.959,209.918,116.922,209.918,116.877z"/>
	<path fill="#FFFFFF" d="M207.971,104.072c0.02,0.082,0.033,0.172,0.055,0.253C208.004,104.244,207.99,104.154,207.971,104.072z"/>
	<path fill="#FFFFFF" d="M174.256,53.297c1.666,1.206,3.287,2.472,4.863,3.793C177.543,55.769,175.922,54.503,174.256,53.297z"/>
	<path fill="#FFFFFF" d="M158.064,44.03c5.742,2.511,11.164,5.625,16.18,9.261C169.229,49.648,163.809,46.541,158.064,44.03z"/>
	<path fill="#FFFFFF" d="M192.043,70.527c0.58,0.75,1.148,1.513,1.709,2.28C193.191,72.04,192.623,71.277,192.043,70.527z"/>
	<path fill="#FFFFFF" d="M190.059,68.054c0.641,0.77,1.271,1.551,1.891,2.345C191.332,69.605,190.699,68.824,190.059,68.054z"/>
	<path fill="#FFFFFF" d="M179.15,57.116c1.566,1.316,3.084,2.683,4.555,4.107C182.234,59.798,180.717,58.432,179.15,57.116z"/>
	<path fill="#FFFFFF" d="M183.756,61.272c1.461,1.411,2.873,2.88,4.229,4.392C186.629,64.152,185.217,62.683,183.756,61.272z"/>
	<path fill="#FFFFFF" d="M188.061,65.748c0.658,0.736,1.305,1.48,1.936,2.237C189.365,67.228,188.721,66.484,188.061,65.748z"/>
	<path fill="#FFFFFF" d="M210.111,120.551c0.031,0.98,0.055,1.964,0.055,2.949C210.166,122.515,210.145,121.53,210.111,120.551z"/>
	<path fill="#FFFFFF" d="M209.926,116.999c0.068,0.935,0.119,1.869,0.156,2.811C210.045,118.868,209.996,117.932,209.926,116.999z"
		/>
	<path fill="#FFFFFF" d="M207.281,101.307c0.242,0.915,0.477,1.836,0.688,2.765C207.756,103.143,207.523,102.222,207.281,101.307z"
		/>
	<path fill="#FFFFFF" d="M203.133,89.314c0.379,0.876,0.744,1.761,1.094,2.649C203.877,91.075,203.512,90.19,203.133,89.314z"/>
	<path fill="#FFFFFF" d="M201.84,86.454c0.375,0.795,0.736,1.589,1.088,2.39C202.578,88.042,202.215,87.249,201.84,86.454z"/>
	<path fill="#FFFFFF" d="M208.693,107.567c0.176,0.939,0.34,1.881,0.482,2.834C209.033,109.448,208.869,108.506,208.693,107.567z"/>
	<path fill="#FFFFFF" d="M204.326,92.224c0.312,0.809,0.611,1.621,0.9,2.44C204.938,93.845,204.641,93.033,204.326,92.224z"/>
	<path fill="#FFFFFF" d="M208.023,104.325c0.193,0.852,0.371,1.71,0.539,2.568C208.395,106.036,208.217,105.176,208.023,104.325z"/>
	<path fill="#FFFFFF" d="M206.396,98.199c0.25,0.82,0.484,1.652,0.717,2.485C206.883,99.851,206.646,99.019,206.396,98.199z"/>
	<path fill="#FFFFFF" d="M205.42,95.211c0.312,0.896,0.611,1.799,0.891,2.709C206.031,97.01,205.732,96.107,205.42,95.211z"/>
	<path fill="#FFFFFF" d="M209.641,113.993c0.107,0.959,0.201,1.92,0.277,2.885C209.842,115.913,209.748,114.952,209.641,113.993z"/>
	<path fill="#FFFFFF" d="M200.434,83.632c0.443,0.852,0.877,1.71,1.293,2.579C201.311,85.342,200.877,84.484,200.434,83.632z"/>
	<path fill="#FFFFFF" d="M195.682,75.585c0.508,0.763,1.004,1.538,1.49,2.32C196.686,77.124,196.188,76.348,195.682,75.585z"/>
	<path fill="#FFFFFF" d="M197.344,78.178c0.508,0.826,1.008,1.665,1.49,2.51C198.352,79.843,197.852,79.004,197.344,78.178z"/>
	<path fill="#FFFFFF" d="M193.877,72.98c0.578,0.801,1.143,1.614,1.688,2.435C195.02,74.594,194.455,73.781,193.877,72.98z"/>
	<path fill="#FFFFFF" d="M209.207,110.599c0.133,0.89,0.248,1.778,0.354,2.675C209.455,112.377,209.34,111.489,209.207,110.599z"/>
	<path fill="#FFFFFF" d="M198.955,80.905c0.438,0.775,0.867,1.562,1.283,2.353C199.822,82.468,199.393,81.68,198.955,80.905z"/>
	<path fill="#FFFFFF" d="M185.568,186.814c16.412-16.092,26.6-38.516,26.6-63.314c0-34.84-20.104-64.974-49.332-79.47h-4.771
		c5.742,2.511,11.164,5.618,16.18,9.261c0.004,0,0.01,0,0.014,0.007c1.664,1.206,3.285,2.472,4.861,3.793
		c0.01,0.007,0.021,0.02,0.031,0.025c1.566,1.316,3.084,2.683,4.555,4.107c0.02,0.018,0.035,0.03,0.051,0.049
		c1.463,1.411,2.873,2.88,4.229,4.392c0.023,0.026,0.053,0.058,0.076,0.084c0.658,0.736,1.305,1.48,1.936,2.237
		c0.021,0.024,0.041,0.044,0.062,0.069c0.643,0.77,1.273,1.551,1.893,2.345c0.031,0.044,0.061,0.083,0.094,0.128
		c0.582,0.75,1.15,1.513,1.711,2.28c0.041,0.058,0.082,0.115,0.123,0.173c0.578,0.801,1.143,1.614,1.689,2.435
		c0.039,0.057,0.076,0.114,0.115,0.171c0.508,0.763,1.004,1.538,1.488,2.32c0.059,0.089,0.115,0.185,0.174,0.272
		c0.508,0.826,1.008,1.665,1.488,2.51c0.041,0.071,0.08,0.147,0.121,0.217c0.438,0.775,0.867,1.562,1.283,2.353
		c0.062,0.126,0.131,0.247,0.193,0.375c0.443,0.852,0.877,1.71,1.293,2.579c0.037,0.084,0.076,0.166,0.113,0.242
		c0.377,0.795,0.738,1.589,1.088,2.39c0.068,0.159,0.141,0.317,0.207,0.471c0.377,0.876,0.742,1.761,1.092,2.649
		c0.033,0.083,0.066,0.179,0.102,0.261c0.312,0.809,0.611,1.621,0.9,2.44c0.066,0.179,0.129,0.363,0.193,0.547
		c0.311,0.896,0.609,1.799,0.889,2.709c0.031,0.088,0.061,0.184,0.088,0.278c0.25,0.82,0.484,1.652,0.717,2.485
		c0.057,0.202,0.113,0.413,0.168,0.623c0.242,0.915,0.477,1.836,0.688,2.765c0.021,0.082,0.035,0.172,0.055,0.253
		c0.193,0.852,0.371,1.71,0.539,2.568c0.045,0.229,0.086,0.452,0.131,0.674c0.176,0.939,0.34,1.881,0.482,2.834
		c0.01,0.062,0.021,0.135,0.029,0.198c0.133,0.89,0.248,1.778,0.355,2.675c0.023,0.242,0.055,0.479,0.078,0.719
		c0.107,0.959,0.199,1.92,0.275,2.885c0,0.045,0.004,0.084,0.008,0.121c0.07,0.935,0.119,1.869,0.158,2.811
		c0.01,0.248,0.02,0.495,0.027,0.744c0.031,0.979,0.055,1.963,0.055,2.947c0,23.478-9.385,44.794-24.598,60.423v2.891H185.568
		L185.568,186.814z"/>
	<path fill="#FFFFFF" d="M36.831,123.5c0-23.479,9.389-44.801,24.604-60.424V60.18C45.018,76.272,34.831,98.695,34.831,123.5
		c0,28.447,13.402,53.761,34.231,69.98h3.378C50.871,177.701,36.831,152.215,36.831,123.5z"/>
	<path fill="#FFFFFF" d="M145.477,139.465h-1.953l-2.213-63.334l13.928-23.4l-0.562-2.986l3.393-5.715h-2.328l-4.578,7.71
		l0.004,0.006l-16.07,27.006l0.014,0.005l-46.066,77.427l0.44,9.311l-17.039,27.988h2.342l18.223-29.936l-0.017-0.012l40.297-66.2
		l0.369,42.13h-2.564H111.36l-2.364,3.828h22.1h2.596l0.275,31.51h2.76l7.605-12.305l-0.67-19.205h1.818h10.729l2.363-3.828H145.477
		L145.477,139.465z M136.652,167.209l-0.15-17.689l3.619-5.812l-0.932-31.678l2.053-3.323l1.572,48.544L136.652,167.209z"/>
</g>
</svg>
